<svg width="175" height="136" viewBox="0 0 175 136" fill="none" xmlns="http://www.w3.org/2000/svg">
<g clip-path="url(#clip0_230_217)">
<path d="M93.3755 99.4274H0V43.5094L46.6174 8.79016L93.3052 43.5094L93.3755 99.4274ZM9.53458 89.8606H83.8234V48.3281L46.6174 20.7221L9.46422 48.3281L9.53458 89.8606Z" fill="#1D1D1B"/>
<path d="M140.468 99.4274H47.0924V43.5094L93.7802 8.79016L140.468 43.5094V99.4274ZM56.627 89.8606H130.916V48.3281L93.7802 20.7221L56.627 48.3281V89.8606Z" fill="#1D1D1B"/>
<path d="M174.437 24.0405H150.126V15.8152H159.097V8.22531H150.126V0H174.437V8.22531H165.817V15.8152H174.437V24.0405Z" fill="#878787"/>
<path d="M162.281 27.6942C169.635 27.6942 174.982 33.519 174.982 41.4619C174.982 49.4048 169.705 55.2119 162.281 55.2119C154.858 55.2119 149.58 49.4048 149.58 41.4619C149.58 33.519 154.928 27.6942 162.281 27.6942ZM162.281 46.9337C163.336 46.8211 164.336 46.4041 165.16 45.7331C165.984 45.0622 166.596 44.1661 166.923 43.1533C167.249 42.1405 167.277 41.0544 167.001 40.0264C166.725 38.9984 166.158 38.0727 165.369 37.3612C164.58 36.6496 163.602 36.1829 162.554 36.0174C161.506 35.8519 160.433 35.9947 159.464 36.4286C158.495 36.8624 157.672 37.5688 157.095 38.4621C156.518 39.3554 156.211 40.3973 156.212 41.4619C156.221 42.2314 156.389 42.9907 156.705 43.6917C157.021 44.3928 157.479 45.0203 158.05 45.5346C158.62 46.049 159.291 46.4389 160.019 46.6797C160.748 46.9205 161.518 47.007 162.281 46.9337Z" fill="#878787"/>
<path d="M161.068 58.6715H174.437V66.8968H161.314C157.602 66.8968 156.212 68.3089 156.212 70.6212C156.212 72.9335 157.602 74.3455 161.314 74.3455H174.437V82.4296H161.068C153.785 82.4296 149.58 78.0345 149.58 70.5506C149.58 63.0666 153.785 58.6715 161.068 58.6715Z" fill="#878787"/>
<path d="M152.166 85.3243L158.13 87.9719C156.724 90.4171 155.961 93.1808 155.913 96.0031C155.913 98.3507 156.406 99.1802 157.233 99.1802C160.294 99.1802 157.831 85.6949 166.89 85.6949C171.394 85.6949 175.07 89.4899 175.07 97.0621C175.131 100.255 174.406 103.414 172.959 106.258L167.031 103.769C168.143 101.681 168.746 99.3586 168.79 96.9915C168.79 94.591 168.104 93.8143 167.26 93.8143C164.357 93.8143 166.785 107.3 157.831 107.3C153.38 107.3 149.633 103.505 149.633 95.9325C149.568 92.2381 150.44 88.5878 152.166 85.3243Z" fill="#878787"/>
<g style="mix-blend-mode:multiply">
<g style="mix-blend-mode:multiply">
<path d="M84.5622 111.077V135.453H76.3646V126.468H68.8002V135.453H60.6906V111.077H68.8882V119.708H76.4525V111.077H84.5622Z" fill="#1D1D1B"/>
</g>
<g style="mix-blend-mode:multiply">
<path d="M88.2038 123.256C88.2038 115.878 94.0089 110.512 101.925 110.512C109.841 110.512 115.629 115.807 115.629 123.256C115.629 130.705 109.841 136 101.925 136C94.0089 136 88.2038 130.652 88.2038 123.256ZM107.361 123.256C107.242 122.203 106.822 121.208 106.152 120.389C105.482 119.571 104.59 118.964 103.584 118.643C102.578 118.322 101.5 118.299 100.482 118.579C99.4635 118.858 98.5473 119.427 97.8441 120.217C97.1408 121.007 96.6804 121.985 96.5185 123.032C96.3565 124.079 96.4999 125.15 96.9313 126.117C97.3628 127.084 98.0638 127.905 98.9499 128.481C99.836 129.057 100.869 129.363 101.925 129.363C102.693 129.355 103.451 129.186 104.15 128.868C104.849 128.549 105.474 128.088 105.986 127.513C106.497 126.938 106.884 126.263 107.121 125.53C107.357 124.797 107.439 124.023 107.361 123.256Z" fill="#1D1D1B"/>
</g>
<g style="mix-blend-mode:multiply">
<path d="M140.978 135.453V124.333L135.701 133.264H132.094L126.817 124.721V135.453H119.358V111.077H126.078L133.994 124.068L141.699 111.077H148.437V135.453H140.978Z" fill="#1D1D1B"/>
</g>
<g style="mix-blend-mode:multiply">
<path d="M173.276 129.257V135.453H153.063V111.077H172.819V117.325H161.12V120.185H171.394V126.098H161.12V129.31L173.276 129.257Z" fill="#1D1D1B"/>
</g>
</g>
</g>
<defs>
<clipPath id="clip0_230_217">
<rect width="175" height="136" fill="white"/>
</clipPath>
</defs>
</svg>
