<svg height="700pt" preserveAspectRatio="xMidYMid meet" viewBox="0 0 700 700" width="700pt" xmlns="http://www.w3.org/2000/svg"><path d="m2430 5202c-63-48-205-154-315-235s-220-163-245-182-111-83-191-142c-174-129-144-106-406-301-116-86-286-212-377-280s-171-129-178-136c-10-10-13-238-13-1117v-1104l2785-1c1532-1 2790 0 2795 2 7 3 10 379 10 1109 0 1024-1 1105-17 1117-50 39-528 393-818 607-245 181-435 322-460 341-14 10-72 54-130 97-58 42-176 130-263 195s-164 118-170 118c-7 0-24-9-37-19-21-17-192-144-415-308-85-63-97-72-222-165-61-46-121-90-133-98s-28-19-34-25c-32-28-86-65-96-65-6 0-26 11-43 23-115 85-330 244-497 368-360 268-390 289-402 288-7 0-65-40-128-87zm285-492c82-61 161-119 175-130 14-10 84-62 155-115 72-52 128-99 125-103-4-8-305-232-482-360l-107-77-3-920-3-920-742-1c-409-1-744 1-744 5-1 3-3 374-4 824l-2 818 106 76c58 43 108 80 111 83s82 62 175 130c94 69 177 130 185 137s193 143 410 304c217 160 415 307 439 325 24 19 47 34 51 34 3 0 73-50 155-110zm2362-360c345-256 675-500 733-543l105-78v-822l-1-822-747-1-747-1-1 746v918 173l-92 68c-51 38-182 135-292 217-110 81-203 151-208 154-4 4 59 57 140 117 82 60 153 112 158 117 73 59 310 227 316 225 4-2 291-212 636-468zm-1477-294c41-31 86-64 99-74 13-9 95-70 182-134l159-118v-823-824h-536c-432 0-537 2-541 13-2 7-5 377-6 822l-2 809 270 200c191 141 274 198 285 192 8-4 49-33 90-63z" transform="matrix(.1 0 0 -.1 0 700)"/></svg>